<svg xmlns="http://www.w3.org/2000/svg" width="63" height="76" viewBox="0 0 63 76" fill="none"><path fill-rule="evenodd" clip-rule="evenodd" d="M28.0281 0.0929766H28.8321C31.9187 -0.290357 34.6004 0.511644 36.8771 2.49898C37.5971 6.78098 38.6697 10.7916 40.0951 14.531L40.9001 17.739C38.7081 16.0138 36.4251 14.4075 34.0611 12.927C33.7911 15.003 33.2547 17.1416 32.4521 19.343C30.1461 18.581 28.2691 17.2443 26.8211 15.333C25.3707 16.7412 24.3877 18.5609 24.0051 20.546C25.5984 21.032 25.8667 21.8343 24.8101 22.953C26.0201 24.1483 26.6901 25.6186 26.8201 27.364C27.5498 26.7095 28.1035 25.8822 28.4301 24.958C28.7767 28.1613 29.9834 28.696 32.0501 26.562C33.5534 27.7486 34.7601 29.6203 35.6701 32.177L36.4751 31.374C37.6071 34.3485 39.0928 37.1762 40.9001 39.796C39.8267 40.3313 39.8267 40.8663 40.9001 41.401L37.6821 42.203C40.8674 42.653 41.5374 44.1233 39.6921 46.614L38.8881 45.812C38.3521 46.614 38.3521 47.416 38.8881 48.218C39.4841 47.304 40.1547 47.304 40.9001 48.218C41.4969 47.5294 41.9115 46.7022 42.1061 45.812C41.8227 48.792 41.9567 51.733 42.5081 54.635V56.239C41.2634 56.497 40.7274 57.299 40.9001 58.645C40.9001 59.1803 40.6317 59.448 40.0951 59.448C38.2916 60.2133 36.4002 60.7521 34.4641 61.052C34.5974 50.8886 34.4631 40.7286 34.0611 30.572C33.1344 28.9706 31.9277 28.7033 30.4411 29.77C29.4631 31.7213 29.1951 33.593 29.6371 35.385C28.9091 35.9536 28.6407 36.7556 28.8321 37.791C27.4781 37.6603 26.1116 37.7966 24.8101 38.192C24.2041 38.73 23.9357 39.3983 24.0051 40.197V47.417C23.8851 48.2603 24.0191 49.0623 24.4071 49.823C28.1151 52.6696 29.8584 56.4126 29.6371 61.052C26.9171 60.5813 24.5037 59.5116 22.3971 57.843C19.4771 54.1856 18.1361 49.908 18.3741 45.01L18.7761 39.395C19.8312 37.9804 20.5219 36.3277 20.7871 34.583C18.3991 29.0203 18.6674 23.673 21.5921 18.541L23.2011 15.333C24.4911 14.7023 25.0274 13.6326 24.8101 12.124C24.8521 9.15731 25.1201 6.21664 25.6141 3.30198C26.9827 2.73131 27.7874 1.66164 28.0281 0.0929766Z" fill="#C9E278"></path><path fill-rule="evenodd" clip-rule="evenodd" d="M40.8999 17.7378H41.7039V19.3418C43.5539 24.0018 43.8219 28.8144 42.5079 33.7798C44.6719 39.4918 45.3426 45.3738 44.5199 51.4258C44.0306 52.6818 43.3599 53.7511 42.5079 54.6338C41.9562 51.7267 41.8208 48.756 42.1059 45.8108C41.9113 46.701 41.4967 47.5282 40.8999 48.2168C40.1546 47.3028 39.4839 47.3028 38.8879 48.2168C38.3519 47.4148 38.3519 46.6128 38.8879 45.8108L39.6929 46.6128C41.5369 44.1228 40.8665 42.6524 37.6819 42.2018L40.8999 41.3998C39.8266 40.8651 39.8266 40.3301 40.8999 39.7948C39.0926 37.175 37.607 34.3473 36.4749 31.3728L35.6699 32.1758C34.7599 29.6178 33.5532 27.7461 32.0499 26.5608C29.9832 28.6954 28.7766 28.1608 28.4299 24.9568C28.1033 25.881 27.5497 26.7083 26.8199 27.3628C26.6899 25.6174 26.0199 24.1471 24.8099 22.9518C25.8672 21.8331 25.5989 21.0308 24.0049 20.5448C24.3875 18.5597 25.3705 16.7401 26.8209 15.3318C28.2689 17.2431 30.1459 18.5798 32.4519 19.3418C33.2552 17.1411 33.7919 15.0024 34.0619 12.9258C36.4256 14.4064 38.7082 16.0127 40.8999 17.7378Z" fill="#C6E475"></path><path fill-rule="evenodd" clip-rule="evenodd" d="M20.787 18.5385C20.739 18.9745 20.471 19.2419 19.983 19.3405C18.4603 14.8432 15.5103 13.2392 11.133 14.5285C8.907 18.3652 7.298 22.3755 6.306 26.5595C5.884 21.1442 7.493 16.4655 11.133 12.5235C15.873 12.0255 19.091 14.0305 20.787 18.5385Z" fill="#566C3C"></path><path fill-rule="evenodd" clip-rule="evenodd" d="M20.7872 18.5415H21.5922C18.6675 23.6735 18.3992 29.0208 20.7872 34.5835C20.522 36.3282 19.8313 37.9809 18.7762 39.3955L18.3742 45.0105C18.1362 49.9085 19.4768 54.1861 22.3962 57.8435H21.5922C21.4022 57.3648 20.9998 57.0975 20.3852 57.0415C18.741 58.8619 16.6663 60.2407 14.3512 61.0515V42.6055C12.8872 39.5375 11.4125 39.5375 9.92718 42.6055C9.52537 49.0138 9.39092 55.436 9.52418 61.8555C8.38289 61.4713 7.30002 60.9315 6.30618 60.2515C4.51496 57.9718 2.90122 55.558 1.47918 53.0315C1.36118 46.8595 1.62951 40.7105 2.28418 34.5845V33.7825C3.06798 33.408 3.75582 32.8594 4.29518 32.1785C5.19518 30.3605 5.86551 28.4888 6.30618 26.5635C7.29751 22.3795 8.90651 18.3691 11.1332 14.5325C15.5098 13.2431 18.4598 14.8471 19.9832 19.3445C20.4712 19.2458 20.7392 18.9775 20.7872 18.5415Z" fill="#92B74B"></path><path fill-rule="evenodd" clip-rule="evenodd" d="M44.1171 16.1328C44.245 17.2189 44.107 18.3198 43.7151 19.3408C43.0958 20.2221 42.4254 20.2221 41.7041 19.3408V17.7368C42.7321 17.5101 43.5364 16.9755 44.1171 16.1328Z" fill="#556C3B"></path><path fill-rule="evenodd" clip-rule="evenodd" d="M47.3351 13.7279C49.8711 13.2932 51.8824 14.0952 53.3691 16.1339C54.5331 19.9832 55.7398 23.7265 56.9891 27.3639C56.9311 28.5879 57.4678 29.3895 58.5991 29.7689C58.9124 33.0102 59.9848 35.9512 61.8161 38.5919C62.3428 45.2199 61.5384 51.6365 59.4031 57.8419C57.9038 59.6119 56.0264 60.6815 53.7711 61.0509V40.9979C52.6415 41.068 51.5177 40.7879 50.5531 40.1959C49.7311 40.4812 49.1948 41.0162 48.9441 41.8009C48.1461 48.0695 47.8781 54.4862 48.1401 61.0509C45.7641 60.0175 43.8868 58.4132 42.5081 56.2379V54.6339C43.3601 53.7512 44.0308 52.6819 44.5201 51.4259C45.3428 45.3739 44.6721 39.4919 42.5081 33.7799C43.8221 28.8145 43.5541 24.0019 41.7041 19.3419C42.4261 20.2232 43.0964 20.2232 43.7151 19.3419C44.107 18.3209 44.245 17.22 44.1171 16.1339L47.3351 13.7279Z" fill="#91B74B"></path><path fill-rule="evenodd" clip-rule="evenodd" d="M47.335 13.729C48.477 12.9663 49.818 12.6986 51.358 12.926C53.5553 14.1866 55.0303 16.0583 55.783 18.541C56.361 21.465 56.763 24.406 56.989 27.364C55.7127 23.6434 54.5059 19.8994 53.369 16.134C51.8823 14.0966 49.871 13.295 47.335 13.729Z" fill="#516939"></path><path fill-rule="evenodd" clip-rule="evenodd" d="M6.30618 26.5625C5.859 28.5066 5.18435 30.3913 4.29618 32.1775C3.75654 32.8585 3.06834 33.4072 2.28418 33.7815C3.01618 30.9802 4.35685 28.5738 6.30618 26.5625Z" fill="#506639"></path><path fill-rule="evenodd" clip-rule="evenodd" d="M34.4639 61.0506V61.8526H33.6589V34.5816C33.9683 32.8456 33.4319 31.5089 32.0499 30.5716C30.6679 31.5083 30.1316 32.8449 30.4409 34.5816V46.6126C29.1343 46.7253 28.1956 46.1906 27.6249 45.0086C27.2269 43.1652 27.0915 41.2748 27.2229 39.3936C28.2629 40.4709 28.9333 41.8076 29.2339 43.4036C29.6346 40.7436 29.7689 38.0703 29.6369 35.3836C29.1949 33.5916 29.4629 31.7199 30.4409 29.7686C31.9276 28.7019 33.1343 28.9693 34.0609 30.5706C34.4629 40.7273 34.5973 50.8873 34.4639 61.0506Z" fill="#DCBE6E"></path><path fill-rule="evenodd" clip-rule="evenodd" d="M56.9901 27.3633C58.1208 27.7433 58.6568 28.5453 58.5981 29.7693C57.4674 29.3893 56.9311 28.5873 56.9891 27.3633" fill="#455936"></path><path fill-rule="evenodd" clip-rule="evenodd" d="M33.6588 34.5842C32.875 34.9587 32.1872 35.5073 31.6478 36.1882C31.4238 35.4536 31.0215 34.9189 30.4408 34.5842C30.1315 32.8482 30.6678 31.5116 32.0498 30.5742C33.4318 31.5109 33.9682 32.8476 33.6588 34.5842Z" fill="#EB8959"></path><path fill-rule="evenodd" clip-rule="evenodd" d="M29.6371 35.3828C29.7701 38.0629 29.6351 40.7496 29.2341 43.4028C28.9341 41.8068 28.2641 40.4701 27.2241 39.3928C26.0501 39.3395 24.9771 39.6068 24.0051 40.1948C23.9365 39.3968 24.2048 38.7285 24.8101 38.1898C26.1117 37.7947 27.4782 37.6588 28.8321 37.7898C28.6415 36.7538 28.9098 35.9515 29.6371 35.3828Z" fill="#DAD885"></path><path fill-rule="evenodd" clip-rule="evenodd" d="M58.5981 29.7695C60.6095 32.3042 61.6821 35.2452 61.8161 38.5925C59.9855 35.9525 58.9128 33.0115 58.5981 29.7695Z" fill="#617A42"></path><path fill-rule="evenodd" clip-rule="evenodd" d="M30.4409 34.582C31.0209 34.9174 31.4233 35.452 31.6479 36.186C32.1873 35.5051 32.8751 34.9565 33.6589 34.582V40.998C33.0986 40.488 32.5617 39.9528 32.0499 39.394C31.5382 39.9531 31.0013 40.4887 30.4409 40.999V34.582Z" fill="#E79E76"></path><path fill-rule="evenodd" clip-rule="evenodd" d="M1.48003 53.03C1.36203 46.8567 1.63003 40.7074 2.28403 34.582C-0.463972 40.646 -0.732305 46.7954 1.47903 53.03" fill="#536939"></path><path fill-rule="evenodd" clip-rule="evenodd" d="M48.9441 41.8007C50.5401 41.5253 51.6128 42.06 52.1621 43.4047C51.2068 42.4547 50.2684 42.4547 49.3471 43.4047C48.9451 49.5452 48.8106 55.7004 48.9441 61.8527H48.1401V61.0507C47.8781 54.486 48.1461 48.0693 48.9441 41.8007Z" fill="#B58F43"></path><path fill-rule="evenodd" clip-rule="evenodd" d="M52.1622 43.4039C52.9609 49.4039 53.2292 55.5532 52.9672 61.8519V62.6539C52.3045 65.7119 51.9022 68.9202 51.7602 72.2789C51.2202 72.8816 50.5499 73.1489 49.7492 73.0809C48.9559 69.4962 48.6875 65.7529 48.9442 61.8509C48.8102 55.6962 48.9445 49.5472 49.3472 43.4039C50.2685 42.4539 51.2069 42.4539 52.1622 43.4039Z" fill="#CD693A"></path><path fill-rule="evenodd" clip-rule="evenodd" d="M61.8158 38.5938C63.5185 44.0877 63.3845 49.7024 61.4138 55.4378C61.1105 56.5951 60.4402 57.3971 59.4028 57.8438C61.5382 51.6384 62.3425 45.2217 61.8158 38.5938Z" fill="#4E6437"></path><path fill-rule="evenodd" clip-rule="evenodd" d="M14.3508 42.6018C12.8095 41.3058 11.6028 41.5731 10.7308 43.4038C10.3291 49.5444 10.195 55.6995 10.3288 61.8518H9.52382C9.38982 55.4291 9.52415 49.0124 9.92682 42.6018C11.4122 39.5338 12.8868 39.5338 14.3508 42.6018Z" fill="#A7A244"></path><path fill-rule="evenodd" clip-rule="evenodd" d="M53.7708 61.0503C53.7708 61.5843 53.5028 61.8516 52.9668 61.8523C53.2282 55.5543 52.9598 49.405 52.1618 43.4043C51.6118 42.059 50.5392 41.5243 48.9438 41.8003C49.1938 41.015 49.7305 40.48 50.5538 40.1953C51.518 40.7875 52.6414 41.0679 53.7708 40.9983V61.0503Z" fill="#A1AA4A"></path><path fill-rule="evenodd" clip-rule="evenodd" d="M24.0048 47.4141C28.7848 51.0641 30.9302 55.8767 30.4408 61.8521V62.6541H29.6368V61.0501C29.8582 56.4114 28.1148 52.6681 24.4068 49.8201C24.0223 49.0806 23.8816 48.2384 24.0048 47.4141Z" fill="#DBB769"></path><path fill-rule="evenodd" clip-rule="evenodd" d="M27.2229 39.3934C27.0915 41.2834 27.2256 43.155 27.6249 45.0084C28.1962 46.1904 29.1349 46.725 30.4409 46.6124V40.9984C31.0013 40.488 31.5382 39.9525 32.0499 39.3934C32.5616 39.9525 33.0985 40.488 33.6589 40.9984V61.8524H32.8549C32.6249 59.9004 32.0882 59.9004 31.2449 61.8524H30.4409C30.9309 55.877 28.7855 51.0644 24.0049 47.4144V40.1954C24.9769 39.6074 26.0495 39.34 27.2229 39.3934Z" fill="#EC8959"></path><path fill-rule="evenodd" clip-rule="evenodd" d="M1.48 53.0312C2.90177 55.5574 4.51517 57.9708 6.306 60.2503C7.29985 60.9303 8.38271 61.47 9.524 61.8543H10.329V62.6562C9.79234 62.6562 9.524 62.9236 9.524 63.4583C6.41734 62.6369 4.138 60.7653 2.686 57.8433C2.03593 56.3118 1.6287 54.6882 1.479 53.0312" fill="#576D3B"></path><path fill-rule="evenodd" clip-rule="evenodd" d="M21.5921 57.844C19.6814 59.7402 17.5151 61.3602 15.1561 62.657C15.1561 62.1223 14.8877 61.855 14.3511 61.855V61.053C16.6662 60.2422 18.7409 58.8634 20.3851 57.043C20.9997 57.0983 21.4021 57.3653 21.5921 57.844Z" fill="#536839"></path><path fill-rule="evenodd" clip-rule="evenodd" d="M21.5918 57.8438H22.3958L24.8098 61.0527C22.9325 60.7847 21.8598 59.7151 21.5918 57.8438Z" fill="#435833"></path><path fill-rule="evenodd" clip-rule="evenodd" d="M42.5079 56.2383C43.8866 58.4143 45.7639 60.0186 48.1399 61.0513V62.6553C45.8113 61.5466 43.7999 59.9423 42.1059 57.8423C41.7979 58.2889 41.3959 58.5563 40.8999 58.6443C40.7266 57.2983 41.2626 56.4963 42.5079 56.2383Z" fill="#586F3C"></path><path fill-rule="evenodd" clip-rule="evenodd" d="M22.396 57.8438C24.5047 59.5117 26.918 60.5814 29.636 61.0527V61.8548C28.0799 61.3336 26.451 61.0629 24.81 61.0527L22.396 57.8438Z" fill="#9AB564"></path><path fill-rule="evenodd" clip-rule="evenodd" d="M32.8551 61.8546C32.3184 73.6186 31.7818 73.6186 31.2451 61.8546C32.0885 59.9026 32.6251 59.9026 32.8551 61.8546Z" fill="#F9835C"></path><path fill-rule="evenodd" clip-rule="evenodd" d="M40.0949 59.4463C38.7909 61.405 36.9139 62.4743 34.4639 62.6543V61.0503C36.4 60.7501 38.2914 60.212 40.0949 59.4463Z" fill="#53673E"></path><path fill-rule="evenodd" clip-rule="evenodd" d="M19.1782 61.8516C20.2516 62.3862 20.2516 62.3862 19.1782 61.8516Z" fill="#2A3837"></path><path fill-rule="evenodd" clip-rule="evenodd" d="M24.8101 61.0508C26.4701 61.0641 28.0791 61.3314 29.6371 61.8528V63.4568C28.0207 62.6696 26.4116 61.8676 24.8101 61.0508Z" fill="#485D37"></path><path fill-rule="evenodd" clip-rule="evenodd" d="M40.0952 61.8516C41.1685 62.3862 41.1685 62.3862 40.0952 61.8516Z" fill="#2A3837"></path><path fill-rule="evenodd" clip-rule="evenodd" d="M59.4028 57.8438C58.0795 60.7678 55.9341 62.9068 52.9668 64.2608V61.8548C53.5028 61.8548 53.7708 61.5874 53.7708 61.0527C56.0268 60.6827 57.9041 59.6131 59.4028 57.8438Z" fill="#56683A"></path><path fill-rule="evenodd" clip-rule="evenodd" d="M14.3512 42.6022V61.8522C13.5578 65.4368 13.2898 69.1798 13.5472 73.0812H11.1332C10.3412 69.7652 10.0732 66.2895 10.3292 62.6542V61.8522C10.1952 55.6968 10.3292 49.5475 10.7312 43.4042C11.6032 41.5742 12.8098 41.3068 14.3512 42.6022Z" fill="#CC683B"></path><path fill-rule="evenodd" clip-rule="evenodd" d="M14.3511 61.8526C14.8878 61.8526 15.1561 62.1199 15.1561 62.6546C15.4134 66.5546 15.1451 70.2976 14.3511 73.8836C13.4798 73.9156 12.6754 74.1829 11.9381 74.6856C11.2961 74.3189 11.0278 73.7842 11.1331 73.0816H13.5471C13.2898 69.1816 13.5578 65.4382 14.3511 61.8516" fill="#854C37"></path><path fill-rule="evenodd" clip-rule="evenodd" d="M10.3291 62.6562C10.0731 66.2916 10.3411 69.7673 11.1331 73.0833C11.0278 73.7866 11.2961 74.3212 11.9381 74.6872C12.6486 74.1935 13.4864 73.9151 14.3511 73.8853C12.9131 75.9433 11.4385 75.9433 9.92714 73.8853C9.52594 70.425 9.39121 66.9391 9.52414 63.4583C9.52414 62.9236 9.79248 62.6562 10.3291 62.6562Z" fill="#4F342C"></path><path fill-rule="evenodd" clip-rule="evenodd" d="M48.1399 61.8516H48.9439C48.6873 65.7516 48.9556 69.4946 49.7489 73.0806C49.6443 73.7839 49.9123 74.3186 50.5529 74.6846C51.3729 74.1286 52.1776 73.5939 52.9669 73.0806C52.2776 75.4979 50.8026 76.0326 48.5419 74.6846C48.1396 70.6877 48.0053 66.6684 48.1399 62.6536V61.8516Z" fill="#644030"></path><path fill-rule="evenodd" clip-rule="evenodd" d="M52.9669 62.6562V73.0833C52.1769 73.5966 51.3722 74.1312 50.5529 74.6872C49.9115 74.3206 49.6435 73.7859 49.7489 73.0833C50.5495 73.1519 51.2198 72.8846 51.7598 72.2812C51.9018 68.9226 52.3042 65.7143 52.9669 62.6562Z" fill="#8F4E34"></path><path fill-rule="evenodd" clip-rule="evenodd" d="M33.6589 61.8516H34.4639V62.6536C34.5972 66.6736 34.4629 70.6839 34.0609 74.6846C32.7209 75.7546 31.3802 75.7546 30.0389 74.6846C29.6385 70.9555 29.5042 67.2027 29.6369 63.4546V62.6536H30.4409V73.8826H33.6589V61.8516Z" fill="#6C4D3E"></path><path fill-rule="evenodd" clip-rule="evenodd" d="M30.4409 61.8516H31.2459C31.7819 73.6156 32.3183 73.6156 32.8549 61.8516H33.6589V73.8826H30.4409V61.8516Z" fill="#DD8665"></path><style>@media (prefers-color-scheme: light) { :root { filter: none; } }
@media (prefers-color-scheme: dark) { :root { filter: none; } }
</style></svg>