<svg xmlns="http://www.w3.org/2000/svg" viewBox="0 0 309 77" fill="none"><path fill="#fff" d="M70.303 65 87.854 8.797h8.988L114.277 65h-7.56L93.525 21.334q-.424-1.543-.772-2.7-.309-1.196-.656-2.43h-.115a302 302 0 0 1-.695 2.43q-.346 1.157-.771 2.7L77.632 65zm8.1-14.388 1.428-5.516h24.687l1.466 5.516zM115.726 65V8.527h7.368V65zM129.21 65V8.527h7.329v25.19q1.814-2.43 4.629-3.897 2.817-1.465 6.674-1.465 6.75 0 10.646 4.976 3.935 4.936 3.935 12.768v1.234q0 7.83-3.935 13.154-3.935 5.285-10.685 5.285-3.896 0-6.905-1.428-2.97-1.466-4.513-3.857h-.077L136.269 65zm7.329-10.724q1.12 2.354 3.395 4.128 2.275 1.736 5.902 1.736 4.551 0 6.827-3.665 2.315-3.665 2.315-9.18v-1.12q0-5.476-2.315-8.756-2.275-3.317-7.174-3.317-3.28 0-5.594 1.736t-3.356 4.05zM164.334 54.778q0-5.284 4.128-8.41 4.127-3.123 11.032-3.124h8.679v-3.163q0-3.24-1.697-4.937-1.659-1.698-5.439-1.698-3.741 0-5.709 1.466-1.929 1.465-1.929 4.128v.848h-6.982v-1.196q0-4.436 4.012-7.367 4.012-2.97 10.955-2.97 6.828 0 10.454 2.777 3.664 2.739 3.664 9.142v15.815q0 2.43.348 4.59.346 2.122 1.08 3.742V65h-7.059q-.58-1.004-.965-2.43a19.4 19.4 0 0 1-.54-3.009q-1.272 2.315-4.359 4.166-3.047 1.813-7.792 1.813-5.477 0-8.679-2.739-3.202-2.777-3.202-8.023m7.252-.386q0 3.009 1.775 4.552 1.812 1.542 5.207 1.543 3.627 0 6.596-2.469 3.009-2.508 3.009-5.632v-4.552h-6.827q-4.977 0-7.368 1.698t-2.392 4.86M197.53 34.95v-5.747h21.756v5.748zm6.133 19.828V31.016l.116-.501V16.358h7.098v37.378q0 4.012 1.118 5.17 1.119 1.156 3.472 1.157.964 0 1.813-.155a8.4 8.4 0 0 0 1.736-.501V65q-.849.309-2.353.54-1.467.27-3.472.27-4.513 0-7.021-2.469t-2.507-8.563M222.085 65V29.203h7.213l.039 4.938h.038a13.4 13.4 0 0 1 3.973-4.09q2.43-1.62 5.786-1.62.85 0 1.813.155.964.116 1.351.27v5.979a11.4 11.4 0 0 0-1.621-.309 17 17 0 0 0-2.044-.115q-2.7 0-5.208 1.774-2.468 1.736-3.896 4.59V65zM241.239 47.68v-1.273q0-8.14 4.783-13.115 4.783-5.015 12.73-5.015 7.946 0 12.691 5.015 4.783 4.976 4.783 13.115v1.273q0 8.178-4.783 13.193-4.745 4.976-12.691 4.976-7.986-.001-12.768-4.976-4.745-5.015-4.745-13.193m7.445-1.389v1.505q0 5.439 2.546 8.91 2.584 3.434 7.483 3.434 4.937 0 7.484-3.434 2.584-3.471 2.584-8.949v-1.465q0-5.44-2.584-8.834-2.547-3.395-7.484-3.395-4.899 0-7.483 3.395-2.546 3.395-2.546 8.834M278.948 53.736l6.789.078v.771q0 3.394 2.121 4.822t5.786 1.427 5.632-1.273q1.968-1.312 1.968-3.973 0-2.508-2.006-3.703-1.968-1.235-7.291-2.546-6.172-1.466-9.142-3.935-2.932-2.507-2.932-6.982 0-4.744 3.704-7.444 3.742-2.7 10.183-2.7 6.365 0 10.145 2.815 3.78 2.778 3.78 8.062v.733h-6.75v-.771q0-3.125-1.929-4.398-1.89-1.273-5.362-1.273-3.317 0-5.014 1.157-1.697 1.12-1.697 3.472 0 2.045 1.89 3.279 1.928 1.195 7.136 2.469 6.171 1.465 9.373 3.934 3.202 2.43 3.202 6.944 0 5.207-3.742 8.177-3.703 2.97-11.032 2.97-7.213 0-10.993-2.931-3.743-2.97-3.819-8.37z"/><path fill="#44553a" fill-rule="evenodd" d="M34.464.802q-3.089-.362-5.632.802h-.804Q29.033.103 31.246 0q1.864.013 3.218.802" clip-rule="evenodd"/><path fill="#728a50" fill-rule="evenodd" d="M28.832 1.604Q31.375.44 34.464.802q2.126.917 2.413 3.208-3.414-2.981-8.045-2.406" clip-rule="evenodd"/><path fill="#6a814a" fill-rule="evenodd" d="M28.028 1.604q-.36 2.352-2.414 3.209.066-2.565 2.414-3.209" clip-rule="evenodd"/><path fill="#c9e278" fill-rule="evenodd" d="M28.028 1.604h.804q4.63-.575 8.045 2.406 1.08 6.423 3.218 12.032l.805 3.208a78 78 0 0 0-6.839-4.812q-.405 3.114-1.609 6.416-3.459-1.143-5.631-4.01a9.87 9.87 0 0 0-2.816 5.213q2.39.729.805 2.407 1.815 1.793 2.01 4.411a5.85 5.85 0 0 0 1.61-2.406q.52 4.805 3.62 1.604 2.255 1.78 3.62 5.615l.805-.803a39.7 39.7 0 0 0 4.425 8.422q-1.61.803 0 1.605l-3.218.802q4.778.675 2.01 4.411l-.804-.802q-.804 1.203 0 2.406.894-1.371 2.012 0a5.45 5.45 0 0 0 1.206-2.406q-.425 4.47.402 8.823v1.604q-1.867.387-1.608 2.406 0 .803-.805.803a23.7 23.7 0 0 1-5.631 1.604q.2-15.245-.403-30.48-1.39-2.402-3.62-.802-1.467 2.927-.804 5.615-1.092.853-.805 2.406a10.4 10.4 0 0 0-4.022.401q-.909.807-.805 2.005v7.22q-.18 1.265.402 2.406 5.562 4.27 5.23 11.229-4.08-.706-7.24-3.209-4.38-5.486-4.023-12.833l.402-5.615a10.75 10.75 0 0 0 2.011-4.812q-3.582-8.344.805-16.042l1.609-3.208q1.935-.946 1.609-3.209.063-4.45.804-8.822 2.053-.856 2.414-3.209" clip-rule="evenodd"/><path fill="#607544" fill-rule="evenodd" d="M36.877 4.01q1.56 1.616 2.011 4.01.41 4.067 1.207 8.022-2.139-5.61-3.218-12.032" clip-rule="evenodd"/><path fill="#5f7642" fill-rule="evenodd" d="M25.614 4.813a57.6 57.6 0 0 0-.804 8.823h-.805q-.463-4.8 1.61-8.823" clip-rule="evenodd"/><path fill="#2a3837" fill-rule="evenodd" d="M44.117 12.833q1.61.803 0 0" clip-rule="evenodd"/><path fill="#394d2c" fill-rule="evenodd" d="M51.358 14.438q-2.31-.343-4.023.802l-3.218 2.406q1.892-5.715 7.24-3.209" clip-rule="evenodd"/><path fill="#93ac61" fill-rule="evenodd" d="M24.005 13.636h.805q.327 2.261-1.61 3.208v-.802q-.285-1.554.805-2.407" clip-rule="evenodd"/><path fill="#c6e475" fill-rule="evenodd" d="M40.9 19.25h.804v1.604q2.775 6.99.804 14.438 3.246 8.568 2.012 17.646-.734 1.884-2.012 3.208a31.2 31.2 0 0 1-.402-8.823 5.45 5.45 0 0 1-1.206 2.406q-1.118-1.371-2.012 0-.804-1.203 0-2.406l.805.802q2.766-3.735-2.011-4.411l3.218-.802q-1.61-.802 0-1.605a39.7 39.7 0 0 1-4.425-8.422l-.805.803q-1.365-3.837-3.62-5.615-3.1 3.202-3.62-1.604a5.85 5.85 0 0 1-1.61 2.406q-.195-2.618-2.01-4.411 1.586-1.678-.805-2.407a9.87 9.87 0 0 1 2.816-5.213q2.172 2.867 5.631 4.01 1.205-3.301 1.61-6.416A78 78 0 0 1 40.9 19.25" clip-rule="evenodd"/><path fill="#627a46" fill-rule="evenodd" d="M23.2 16.042v.802l-1.608 3.208h-.805q.302-2.616 2.414-4.01" clip-rule="evenodd"/><path fill="#485d34" fill-rule="evenodd" d="M40.095 16.042q1.935.946 1.609 3.208H40.9z" clip-rule="evenodd"/><path fill="#566c3c" fill-rule="evenodd" d="M20.787 20.052q-.072.654-.804.802-2.284-6.746-8.85-4.812-3.339 5.755-4.827 12.031-.633-8.123 4.827-14.036 7.11-.747 9.654 6.015" clip-rule="evenodd"/><path fill="#92b74b" fill-rule="evenodd" d="M20.787 20.052h.805q-4.387 7.698-.805 16.042a10.75 10.75 0 0 1-2.011 4.812l-.402 5.615q-.357 7.347 4.022 12.833h-.804q-.285-.718-1.207-.802a14.66 14.66 0 0 1-6.034 4.01V44.116q-2.196-4.602-4.424 0a231 231 0 0 0-.403 19.25 13.1 13.1 0 0 1-3.218-1.604 56.7 56.7 0 0 1-4.827-7.22q-.177-9.258.805-18.447v-.802a5.7 5.7 0 0 0 2.011-1.604q1.35-2.727 2.011-5.615 1.487-6.276 4.827-12.031 6.565-1.934 8.85 4.812.732-.148.804-.802" clip-rule="evenodd"/><path fill="#556c3b" fill-rule="evenodd" d="M44.117 17.646a6.75 6.75 0 0 1-.402 3.208q-.929 1.322-2.011 0V19.25q1.542-.34 2.413-1.604" clip-rule="evenodd"/><path fill="#91b74b" fill-rule="evenodd" d="M47.335 15.24q3.804-.652 6.034 2.406 1.746 5.774 3.62 11.23-.087 1.836 1.61 2.405.47 4.862 3.217 8.823.79 9.942-2.413 19.25-2.249 2.655-5.632 3.209V42.51a5.5 5.5 0 0 1-3.218-.802q-1.233.428-1.609 1.605-1.197 9.403-.804 19.25-3.564-1.55-5.632-4.813v-1.604q1.278-1.324 2.012-3.208 1.234-9.078-2.012-17.646 1.971-7.448-.804-14.438 1.083 1.322 2.011 0a6.75 6.75 0 0 0 .402-3.208z" clip-rule="evenodd"/><path fill="#516939" fill-rule="evenodd" d="M47.335 15.24q1.713-1.144 4.023-.803 3.296 1.891 4.425 5.615.867 4.386 1.206 8.823a317 317 0 0 1-3.62-11.23q-2.23-3.056-6.034-2.405" clip-rule="evenodd"/><path fill="#506639" fill-rule="evenodd" d="M6.306 28.073a25.4 25.4 0 0 1-2.01 5.615 5.7 5.7 0 0 1-2.012 1.604q1.098-4.202 4.022-7.219" clip-rule="evenodd"/><path fill="#dcbe6e" fill-rule="evenodd" d="M34.464 62.563v.802h-.805V36.094q.464-2.604-1.609-4.01-2.073 1.405-1.609 4.01v12.031q-1.96.169-2.816-1.604a20 20 0 0 1-.402-5.615q1.56 1.616 2.011 4.01.601-3.99.403-8.02-.663-2.688.804-5.615 2.23-1.6 3.62.802.603 15.235.403 30.48" clip-rule="evenodd"/><path fill="#455936" fill-rule="evenodd" d="M56.99 28.875q1.696.57 1.608 2.406-1.696-.57-1.609-2.406" clip-rule="evenodd"/><path fill="#eb8959" fill-rule="evenodd" d="M33.659 36.094a5.7 5.7 0 0 0-2.011 1.604q-.336-1.102-1.207-1.604-.464-2.604 1.609-4.01 2.073 1.405 1.609 4.01" clip-rule="evenodd"/><path fill="#dad885" fill-rule="evenodd" d="M29.637 36.896a40.3 40.3 0 0 1-.403 8.02q-.45-2.394-2.01-4.01-1.761-.08-3.219.802-.103-1.197.805-2.005a10.4 10.4 0 0 1 4.022-.4q-.286-1.554.805-2.407" clip-rule="evenodd"/><path fill="#617a42" fill-rule="evenodd" d="M58.598 31.281q3.017 3.802 3.218 8.823-2.746-3.96-3.218-8.823" clip-rule="evenodd"/><path fill="#e79e76" fill-rule="evenodd" d="M30.441 36.094q.87.503 1.207 1.604a5.7 5.7 0 0 1 2.011-1.604v6.416a25 25 0 0 1-1.609-1.604 25 25 0 0 1-1.609 1.605z" clip-rule="evenodd"/><path fill="#536939" fill-rule="evenodd" d="M1.48 54.542q-.177-9.26.804-18.448-4.122 9.096-.805 18.448" clip-rule="evenodd"/><path fill="#b58f43" fill-rule="evenodd" d="M48.944 43.313q2.394-.413 3.218 1.604-1.433-1.425-2.815 0a212 212 0 0 0-.403 18.448h-.804v-.802q-.393-9.847.804-19.25" clip-rule="evenodd"/><path fill="#cd693a" fill-rule="evenodd" d="M52.162 44.917q1.198 9 .805 18.448v.802q-.994 4.587-1.207 9.625-.81.904-2.011.802-1.19-5.377-.805-11.23-.201-9.232.403-18.447 1.382-1.425 2.815 0" clip-rule="evenodd"/><path fill="#4e6437" fill-rule="evenodd" d="M61.816 40.104q2.554 8.241-.402 16.844-.455 1.736-2.011 2.406 3.203-9.308 2.413-19.25" clip-rule="evenodd"/><path fill="#a7a244" fill-rule="evenodd" d="M14.351 44.115q-2.312-1.944-3.62.802a212 212 0 0 0-.402 18.448h-.805q-.201-9.634.403-19.25 2.228-4.602 4.424 0" clip-rule="evenodd"/><path fill="#a1aa4a" fill-rule="evenodd" d="M53.771 62.563q0 .801-.804.802.392-9.447-.805-18.448-.825-2.018-3.218-1.604.375-1.178 1.61-1.605a5.5 5.5 0 0 0 3.217.803z" clip-rule="evenodd"/><path fill="#dbb769" fill-rule="evenodd" d="M24.005 48.927q7.17 5.475 6.436 14.438v.802h-.804v-1.604q.332-6.958-5.23-11.23a3.95 3.95 0 0 1-.402-2.406" clip-rule="evenodd"/><path fill="#ec8959" fill-rule="evenodd" d="M27.223 40.906q-.197 2.835.402 5.615.857 1.773 2.816 1.604v-5.614a25 25 0 0 0 1.609-1.605 25 25 0 0 0 1.609 1.605v20.854h-.804q-.345-2.928-1.61 0h-.804q.735-8.963-6.436-14.438v-7.219q1.458-.882 3.218-.802" clip-rule="evenodd"/><path fill="#576d3b" fill-rule="evenodd" d="M1.48 54.542a56.7 56.7 0 0 0 4.826 7.219 13.1 13.1 0 0 0 3.218 1.604h.805v.802q-.805 0-.805.802-4.66-1.232-6.838-5.615a16 16 0 0 1-1.207-4.812" clip-rule="evenodd"/><path fill="#536839" fill-rule="evenodd" d="M21.592 59.354a28.9 28.9 0 0 1-6.436 4.813q0-.802-.805-.802v-.802a14.66 14.66 0 0 0 6.034-4.01q.922.083 1.207.801" clip-rule="evenodd"/><path fill="#435833" fill-rule="evenodd" d="M21.592 59.354h.804l2.414 3.209q-2.816-.402-3.218-3.209" clip-rule="evenodd"/><path fill="#586f3c" fill-rule="evenodd" d="M42.508 57.75q2.068 3.264 5.632 4.813v1.604q-3.493-1.663-6.034-4.813-.462.67-1.206.802-.26-2.019 1.608-2.406" clip-rule="evenodd"/><path fill="#9ab564" fill-rule="evenodd" d="M22.396 59.354q3.163 2.502 7.24 3.209v.802a15.5 15.5 0 0 0-4.826-.802z" clip-rule="evenodd"/><path fill="#f9835c" fill-rule="evenodd" d="M32.855 63.365q-.805 17.646-1.61 0 1.265-2.928 1.61 0" clip-rule="evenodd"/><path fill="#53673e" fill-rule="evenodd" d="M40.095 60.959q-1.956 2.938-5.631 3.208v-1.604a23.7 23.7 0 0 0 5.631-1.605" clip-rule="evenodd"/><path fill="#2a3837" fill-rule="evenodd" d="M19.178 63.365q1.61.802 0 0" clip-rule="evenodd"/><path fill="#485d37" fill-rule="evenodd" d="M24.81 62.563q2.49.02 4.827.802v1.604a293 293 0 0 1-4.827-2.406" clip-rule="evenodd"/><path fill="#2a3837" fill-rule="evenodd" d="M40.095 63.365q1.61.802 0 0" clip-rule="evenodd"/><path fill="#56683a" fill-rule="evenodd" d="M59.403 59.354q-1.985 4.386-6.436 6.417v-2.406q.804 0 .804-.802 3.384-.555 5.632-3.209" clip-rule="evenodd"/><path fill="#cc683b" fill-rule="evenodd" d="M14.351 44.115v19.25q-1.19 5.377-.804 11.229h-2.414q-1.188-4.974-.804-10.427v-.802q-.201-9.233.402-18.448 1.308-2.745 3.62-.802" clip-rule="evenodd"/><path fill="#854c37" fill-rule="evenodd" d="M14.351 63.365q.805 0 .805.802.386 5.85-.805 11.229-1.307.048-2.413.802-.963-.55-.805-1.604h2.414q-.386-5.85.804-11.23" clip-rule="evenodd"/><path fill="#4f342c" fill-rule="evenodd" d="M10.329 64.167q-.384 5.453.804 10.427-.158 1.055.805 1.604a4.5 4.5 0 0 1 2.413-.802q-2.157 3.087-4.424 0a68 68 0 0 1-.403-10.427q0-.802.805-.802" clip-rule="evenodd"/><path fill="#644030" fill-rule="evenodd" d="M48.14 63.365h.804q-.385 5.85.805 11.229-.157 1.055.804 1.604 1.23-.834 2.414-1.604-1.034 3.626-4.425 1.604a90 90 0 0 1-.402-12.031z" clip-rule="evenodd"/><path fill="#8f4e34" fill-rule="evenodd" d="M52.967 64.167v10.427q-1.185.77-2.414 1.604-.962-.55-.804-1.604 1.201.103 2.011-.802.213-5.038 1.207-9.625" clip-rule="evenodd"/><path fill="#6c4d3e" fill-rule="evenodd" d="M33.659 63.365h.805v.802q.2 6.03-.403 12.031-2.01 1.605-4.022 0a79 79 0 0 1-.402-11.23v-.801h.804v11.229h3.218z" clip-rule="evenodd"/><path fill="#dd8665" fill-rule="evenodd" d="M30.441 63.365h.805q.804 17.646 1.609 0h.804v12.031h-3.218V63.365" clip-rule="evenodd"/></svg>